<?xml version="1.0" encoding="UTF-8"?>
<svg width="281px" height="377px" viewBox="0 0 281 377" version="1.1" xmlns="http://www.w3.org/2000/svg" xmlns:xlink="http://www.w3.org/1999/xlink">
    <!-- Generator: Sketch 51.2 (57519) - http://www.bohemiancoding.com/sketch -->
    <title>Shape</title>
    <desc>Created with Sketch.</desc>
    <defs></defs>
    <g id="Page-1" stroke="none" stroke-width="1" fill="none" fill-rule="evenodd">
        <g id="element08" transform="translate(85.000000, -43.000000)" fill="#2ADC89" fill-rule="nonzero">
            <path d="M111,319.5 C111,106.375 84.677,56.683 70.535,29.986 C65.676,20.814 63,15.762 63,7.5 C63,3.358 59.642,-1.0658141e-14 55.5,-1.0658141e-14 C51.358,-1.0658141e-14 48,3.358 48,7.5 C48,15.762 45.324,20.814 40.465,29.986 C26.323,56.683 0,106.375 0,319.5 C0,397.339 33.193,416.691 48,421.45 L48,455.5 C48,459.642 51.358,463 55.5,463 C59.642,463 63,459.642 63,455.5 L63,421.45 C77.807,416.691 111,397.339 111,319.5 Z M15,319.5 C15,137.026 34.127,77.458 48,48.252 L48,405.332 C36.031,399.325 15,380.138 15,319.5 Z M63,405.265 L63,48.252 C76.873,77.458 96,137.026 96,319.5 C96,343.904 92.345,376.987 74.93,396.001 C70.678,400.644 66.461,403.505 63,405.265 Z" id="Shape" transform="translate(55.500000, 231.500000) rotate(-36.184928) translate(-55.500000, -231.500000) "></path>
        </g>
    </g>
</svg>