<?xml version="1.0" encoding="UTF-8" standalone="no"?>
<!DOCTYPE svg PUBLIC "-//W3C//DTD SVG 1.1//EN" "http://www.w3.org/Graphics/SVG/1.1/DTD/svg11.dtd">
<svg version="1.1" xmlns="http://www.w3.org/2000/svg" xmlns:xlink="http://www.w3.org/1999/xlink" preserveAspectRatio="xMidYMid meet" viewBox="-1 99.83759535665496 644.1525731102249 450.6474494097268" width="640.15" height="446.65"><defs><path d="M597.98 547.48C621.17 547.48 640.15 528.5 640.15 505.31C640.15 469.08 640.15 179.24 640.15 143.02C640.15 119.82 621.17 100.84 597.98 100.84C596.76 100.84 590.68 100.84 579.73 100.84L579.73 547.49C590.68 547.48 596.76 547.48 597.98 547.48Z" id="b6ylMSlHLz"></path><path d="M321.36 383.39L320.08 382.49L318.79 383.39C318.49 383.18 318.32 383.07 318.29 383.05C211.53 307.86 106.84 227.41 0 148.77C1.9 145.79 11.39 130.92 28.48 104.13L59.59 101.59L60.42 100.84L318.82 293.77L320.08 292.84L321.33 293.77L579.73 100.84L580.57 101.59L611.68 104.13C628.76 130.92 638.25 145.79 640.15 148.77C533.31 227.41 428.62 307.86 321.86 383.05C321.86 383.05 321.7 383.16 321.36 383.39Z" id="a12bkls4ht"></path><path d="M42.18 547.48C18.98 547.48 0 528.5 0 505.31C0 469.08 0 179.24 0 143.02C0 119.82 18.98 100.84 42.18 100.84C43.4 100.84 49.48 100.84 60.42 100.84L60.42 547.49C49.48 547.48 43.4 547.48 42.18 547.48Z" id="cxFzR8nLa"></path><path d="M594.23 526.4L594.23 547.48L45.92 547.48L45.92 526.4L594.23 526.4Z" id="bzVaA2yWJ"></path><path d="M594.23 100.84L594.23 121.93L45.92 121.93L45.92 100.84L594.23 100.84Z" id="j3RCtQGnqs"></path></defs><g><g><use xlink:href="#b6ylMSlHLz" opacity="1" fill="#424242" fill-opacity="1"></use><g><use xlink:href="#b6ylMSlHLz" opacity="1" fill-opacity="0" stroke="#000000" stroke-width="1" stroke-opacity="0"></use></g></g><g><use xlink:href="#a12bkls4ht" opacity="1" fill="#424242" fill-opacity="1"></use><g><use xlink:href="#a12bkls4ht" opacity="1" fill-opacity="0" stroke="#000000" stroke-width="1" stroke-opacity="0"></use></g></g><g><use xlink:href="#cxFzR8nLa" opacity="1" fill="#424242" fill-opacity="1"></use><g><use xlink:href="#cxFzR8nLa" opacity="1" fill-opacity="0" stroke="#000000" stroke-width="1" stroke-opacity="0"></use></g></g><g><use xlink:href="#bzVaA2yWJ" opacity="1" fill="#424242" fill-opacity="1"></use><g><use xlink:href="#bzVaA2yWJ" opacity="1" fill-opacity="0" stroke="#000000" stroke-width="1" stroke-opacity="0"></use></g></g><g><use xlink:href="#j3RCtQGnqs" opacity="1" fill="#424242" fill-opacity="1"></use><g><use xlink:href="#j3RCtQGnqs" opacity="1" fill-opacity="0" stroke="#000000" stroke-width="1" stroke-opacity="0"></use></g></g></g></svg>