<svg id="Layer_1" xmlns="http://www.w3.org/2000/svg" xmlns:xlink="http://www.w3.org/1999/xlink" viewBox="0 0 1274 344"><style>.st0{clip-path:url(#SVGID_2_);fill:none;} .st1{clip-path:url(#SVGID_4_);} .st2{fill:none;} .st3{opacity:0.5;} .st4{clip-path:url(#SVGID_6_);} .st5{opacity:0.54;enable-background:new ;} .st6{clip-path:url(#SVGID_8_);} .st7{fill:#4285F4;} .st8{opacity:0.2;fill:#1A237E;enable-background:new ;} .st9{opacity:0.2;fill:#FFFFFF;enable-background:new ;} .st10{fill:#FFFFFF;} .st11{clip-path:url(#SVGID_10_);fill:#F5F5F5;} .st12{clip-path:url(#SVGID_10_);fill:#1A237E;} .st13{clip-path:url(#SVGID_10_);fill:#E1E1E1;} .st14{clip-path:url(#SVGID_10_);} .st15{fill:url(#SVGID_11_);} .st16{fill:#F5F5F5;} .st17{fill:#E1E1E1;}</style><defs><path id="SVGID_1_" d="M353 75h872v192H353z"/></defs><clipPath id="SVGID_2_"><use xlink:href="#SVGID_1_" overflow="visible"/></clipPath><path id="XMLID_60_" class="st0" d="M353 116h872v136H353V116z"/><defs><path id="SVGID_3_" d="M353 75h872v192H353z"/></defs><clipPath id="SVGID_4_"><use xlink:href="#SVGID_3_" overflow="visible"/></clipPath><g id="XMLID_8_" class="st1"><path id="XMLID_25_" class="st2" d="M792 219h434v33H792v-33z"/><path class="st3" d="M801.2 219v-91.6h28c14.1 0 25.3 4.2 33.8 12.7 8.4 8.5 12.7 19.5 12.7 33.1s-4.2 24.6-12.7 33.1c-8.4 8.5-19.7 12.7-33.8 12.7h-28zm11.8-11.3h16.3c10.6 0 19-3 25.2-9.1s9.3-14.5 9.3-25.5c0-10.8-3.1-19.3-9.3-25.4-6.2-6.1-14.6-9.2-25.2-9.2H813v69.2zM942.7 219h-11.3v-8.7h-.5c-1.8 3-4.5 5.5-8.2 7.6s-7.6 3.1-11.6 3.1c-7.9 0-13.8-2.4-17.9-7.2-4.1-4.8-6.1-11.2-6.1-19.2v-38.4h11.8v36.5c0 11.7 5.2 17.5 15.5 17.5 4.9 0 8.8-2 11.9-5.9s4.6-8.4 4.6-13.6v-34.6h11.8V219zm19.2-55.2c6.1-6.4 13.8-9.5 23.2-9.5 9.4 0 17.1 3.2 23.2 9.5 6.1 6.4 9.1 14.3 9.1 23.9s-3 17.5-9.1 23.9-13.8 9.5-23.2 9.5c-9.4 0-17.1-3.2-23.2-9.5-6.1-6.4-9.1-14.3-9.1-23.9s3-17.6 9.1-23.9zm8.7 40.3c4.1 4.1 8.9 6.2 14.4 6.2s10.3-2.1 14.4-6.2 6.1-9.6 6.1-16.4-2-12.3-6.1-16.4-8.9-6.2-14.4-6.2-10.3 2.1-14.4 6.2-6.1 9.6-6.1 16.4 2.1 12.3 6.1 16.4z"/></g><g><defs><path id="SVGID_5_" d="M353 75h872v192H353z"/></defs><clipPath id="SVGID_6_"><use xlink:href="#SVGID_5_" overflow="visible"/></clipPath><g id="XMLID_21_" class="st4"><path id="XMLID_71_" class="st3" d="M353.7 168.6c0-28.9 24.3-52.5 53.3-52.5 16 0 27.4 6.3 36 14.5l-10.1 10.1c-6.1-5.8-14.5-10.2-25.9-10.2-21.1 0-37.6 17-37.6 38.1s16.5 38.1 37.6 38.1c13.7 0 21.5-5.5 26.5-10.5 4.1-4.1 6.8-10 7.8-18H407v-14.3h48.3c.5 2.6.8 5.6.8 9 0 10.8-2.9 24.1-12.4 33.5-9.2 9.6-21 14.7-36.6 14.7-29.1-.1-53.4-23.6-53.4-52.5z"/><path id="XMLID_68_" class="st3" d="M495 153.5c-18.7 0-33.9 14.2-33.9 33.8 0 19.5 15.2 33.8 33.9 33.8s33.9-14.3 33.9-33.8c0-19.6-15.2-33.8-33.9-33.8zm0 54.2c-10.2 0-19.1-8.4-19.1-20.5 0-12.2 8.8-20.5 19.1-20.5 10.2 0 19.1 8.3 19.1 20.5 0 12.1-8.9 20.5-19.1 20.5z"/><path id="XMLID_65_" class="st3" d="M569 153.5c-18.7 0-33.9 14.2-33.9 33.8 0 19.5 15.2 33.8 33.9 33.8s33.9-14.3 33.9-33.8c0-19.6-15.2-33.8-33.9-33.8zm0 54.2c-10.2 0-19.1-8.4-19.1-20.5 0-12.2 8.8-20.5 19.1-20.5s19.1 8.3 19.1 20.5c0 12.1-8.9 20.5-19.1 20.5z"/><path id="XMLID_62_" class="st3" d="M659.8 155.5v5.5h-.5c-3.3-4-9.7-7.6-17.8-7.6-16.9 0-32.4 14.8-32.4 33.9 0 18.9 15.5 33.7 32.4 33.7 8.1 0 14.5-3.6 17.8-7.7h.5v4.9c0 12.9-6.9 19.8-18 19.8-9.1 0-14.7-6.5-17-12l-12.9 5.4c3.7 9 13.6 20 30 20 17.4 0 32.1-10.2 32.1-35.2v-60.7h-14.2zm-17 52.2c-10.2 0-18.8-8.6-18.8-20.4 0-11.9 8.6-20.6 18.8-20.6 10.1 0 18 8.7 18 20.6.1 11.9-7.9 20.4-18 20.4z"/><path id="XMLID_57_" class="st3" d="M684.2 119.7H699V219h-14.8v-99.3z"/><path id="XMLID_53_" class="st3" d="M739.7 207.7c-7.6 0-12.9-3.5-16.4-10.2l45.2-18.7-1.5-3.8c-2.8-7.6-11.4-21.5-28.9-21.5-17.4 0-31.9 13.7-31.9 33.8 0 18.9 14.3 33.8 33.5 33.8 15.5 0 24.4-9.5 28.2-15l-11.5-7.7c-3.9 5.6-9.1 9.3-16.7 9.3zm-1.1-41.2c5.9 0 10.9 2.9 12.5 7.2l-30.2 12.5c-.4-13 10.1-19.7 17.7-19.7z"/><path id="XMLID_52_" class="st2" d="M353 116h416v136H353V116z"/></g></g><g><g class="st5"><defs><path id="SVGID_7_" class="st5" d="M353 75h872v192H353z"/></defs><clipPath id="SVGID_8_"><use xlink:href="#SVGID_7_" overflow="visible"/></clipPath><g class="st6"><path id="XMLID_50_" class="st7" d="M285 108c0-6.6-5.4-12-12-12h-69c-50.2 0-89.7 45.7-79.3 97.7 6.4 32 31.9 56.9 64 62.8 50 9.2 93.8-27.5 96.2-75.5h.1v-73z"/><path class="st8" d="M188.7 255.5c-32.1-5.9-57.6-30.8-64-62.8-1.1-5.5-1.6-10.9-1.7-16.2 0 5.6.5 11.4 1.7 17.3 6.4 32 31.9 56.9 64 62.8 50 9.2 93.8-27.4 96.2-75.4h.1v-1h-.1c-2.5 47.8-46.2 84.4-96.2 75.3z"/><path class="st9" d="M273 96h-69c-44.9 0-81.2 36.5-81 81.4.3-44.4 36.4-80.4 81-80.4h69c6.6 0 12 5.4 12 12v-1c0-6.6-5.4-12-12-12z"/><path class="st10" d="M177.9 146h44.2c4.9 0 8.9 4 8.9 8.9v-1c0-4.9-4-8.9-8.9-8.9h-44.2c-4.9 0-8.9 4-8.9 8.9v1c0-4.9 4-8.9 8.9-8.9zm53.1 19v1l18-18v-1l-18 18z"/><path class="st8" d="M222.1 200h-44.2c-4.9 0-8.9-4-8.9-8.9v1c0 4.9 4 8.9 8.9 8.9h44.2c4.9 0 8.9-4 8.9-8.9v-1c0 4.9-4 8.9-8.9 8.9zm8.9-19l18 18v-1l-18-18v1z"/><defs><path id="SVGID_9_" d="M284.6 184.8L249 148v50l-18-18v11.1c0 4.9-4 8.9-8.9 8.9h-44.2c-2.1 0-4-.7-5.6-2l56.2 56.2c30.4-9.6 53-36.7 56.1-69.4z"/></defs><clipPath id="SVGID_10_"><use xlink:href="#SVGID_9_" overflow="visible"/></clipPath><path class="st11" d="M249 198l-18-18v11.1c0 4.9-4 8.9-8.9 8.9h-44.2c-4.9 0-8.9-4-8.9-8.9V173h80v25z"/><path class="st12" d="M251.8 148l.4.4-66.1 66.2-13.8-13.8V148h79.5zm.4.4l32.4 32.4v57.9l-15.5 15.5h-43.4l-39.6-39.6 66.1-66.2zm16.9 105.8l15.5-15.5v15.5h-15.5z"/><path class="st13" d="M249 148l-18 18v-11.1c0-4.9-4-8.9-8.9-8.9h-44.2c-4.9 0-8.9 4-8.9 8.9V173h80v-25z"/><path class="st14 st2" d="M113 76h192v192H113V76z"/></g></g><path id="XMLID_12_" class="st7" d="M285 107c0-6.6-5.4-12-12-12h-69c-50.2 0-89.7 45.7-79.3 97.7 6.4 32 31.9 56.9 64 62.8 50 9.2 93.8-27.5 96.2-75.5h.1v-73z"/><path class="st8" d="M188.7 254.5c-32.1-5.9-57.6-30.8-64-62.8-1.1-5.5-1.6-10.9-1.7-16.2 0 5.6.5 11.4 1.7 17.3 6.4 32 31.9 56.9 64 62.8 50 9.2 93.8-27.4 96.2-75.4h.1v-1h-.1c-2.5 47.8-46.2 84.4-96.2 75.3z"/><path class="st9" d="M273 95h-69c-44.9 0-81.2 36.5-81 81.4.3-44.4 36.4-80.4 81-80.4h69c6.6 0 12 5.4 12 12v-1c0-6.6-5.4-12-12-12z"/><path class="st10" d="M177.9 145h44.2c4.9 0 8.9 4 8.9 8.9v-1c0-4.9-4-8.9-8.9-8.9h-44.2c-4.9 0-8.9 4-8.9 8.9v1c0-4.9 4-8.9 8.9-8.9zm53.1 19v1l18-18v-1l-18 18z"/><path class="st8" d="M222.1 199h-44.2c-4.9 0-8.9-4-8.9-8.9v1c0 4.9 4 8.9 8.9 8.9h44.2c4.9 0 8.9-4 8.9-8.9v-1c0 4.9-4 8.9-8.9 8.9zm8.9-19l18 18v-1l-18-18v1z"/><linearGradient id="SVGID_11_" gradientUnits="userSpaceOnUse" x1="219.149" y1="344.499" x2="280.472" y2="405.822" gradientTransform="translate(0 -164)"><stop offset="0" stop-color="#1A237E" stop-opacity=".2"/><stop offset="1" stop-color="#1A237E" stop-opacity=".02"/></linearGradient><path class="st15" d="M284.6 183.8L249 147v50l-18-18v11.1c0 4.9-4 8.9-8.9 8.9h-44.2c-2.1 0-4-.7-5.6-2l56.2 56.2c30.4-9.6 53-36.7 56.1-69.4z"/><path class="st16" d="M249 197l-18-18v11.1c0 4.9-4 8.9-8.9 8.9h-44.2c-4.9 0-8.9-4-8.9-8.9v-22.5h80V197z"/><path class="st17" d="M249 147l-18 18v-11.1c0-4.9-4-8.9-8.9-8.9h-44.2c-4.9 0-8.9 4-8.9 8.9V172h80v-25z"/><path class="st2" d="M113 75h192v192H113V75z"/></g></svg>